<svg viewBox="0 0 256 256" xmlns="http://www.w3.org/2000/svg"><path d="M80.63 0V220.39H44.37C30.37 220.39 8.63 199.65 8.63 181.26V40.13C8.63 19.19 31.36 0 49.06 0H80.63Z" fill="url(#g)"/><path d="M175.13 35.37V255.76H211.39C225.39 255.76 247.13 235.02 247.13 216.63V75.5C247.13 54.56 224.4 35.37 206.7 35.37H175.13Z" fill="url(#g)"/><path fill-rule="evenodd" clip-rule="evenodd" d="M109.436 145.57L104.24 167.99H111.19L116.386 145.57H133.376L128.18 167.99H135.3L140.496 145.57H157.84L160.29 137.96H142.259L146.544 119.47H162.34L164.79 111.86H148.307L153.89 87.77H146.77L141.187 111.86H124.197L129.78 87.77H122.83L117.247 111.86H97.39L95.14 119.47H115.484L111.199 137.96H92.89L90.64 145.57H109.436ZM139.424 119.47L135.139 137.96H118.149L122.434 119.47H139.424Z" fill="url(#g)"/><defs><linearGradient id="g" x1="223.76" y1="32" x2="27" y2="228.76" gradientUnits="userSpaceOnUse"><stop offset="0" stop-color="#686868"/><stop offset="0.14" stop-color="#686868"/><stop offset="0.14" stop-color="#AE9675"/><stop offset="0.28" stop-color="#AE9675"/><stop offset="0.28" stop-color="#FF635E"/><stop offset="0.42" stop-color="#FF635E"/><stop offset="0.42" stop-color="#FE8F63"/><stop offset="0.56" stop-color="#FE8F63"/><stop offset="0.56" stop-color="#FDEF68"/><stop offset="0.7" stop-color="#FDEF68"/><stop offset="0.7" stop-color="#71C56D"/><stop offset="0.84" stop-color="#71C56D"/><stop offset="0.84" stop-color="#32ADDD"/><stop offset="1" stop-color="#32ADDD"/></linearGradient></defs></svg>